<svg xmlns="http://www.w3.org/2000/svg" viewBox="0 0 60 48"><title>Vennex Logo</title><g fill="none"><g id="Group"><path fill="#005e9e" d="M50.65 5.54c2.81 2.75 4.6 6.72 4.76 10.93.97.78 1.9 1.6 2.79 2.47 0 .01.01.02.02.03.24.23.47.47.71.7.06.06.11.12.17.18.2-.1.31-1.16.31-2.25 0-5.49-2.78-10.34-7-13.19 0-.02-.03-.04-.07-.06-.54-.36-1.1-.69-1.68-.98-.67.45-1.31.95-1.91 1.49.46.33.91.68 1.33 1.06.2.17.39.35.59.54z"/><path fill="#00a84d" d="M45.84 23.68a26.25 26.25 0 0 0-10.51-4.74 25.2 25.2 0 0 0-7.45-.41c-.42.03-.83.08-1.23.14-.1.01-.19.02-.28.04-.18.06-.37.09-.58.09h-.03c-.13 0-.26-.01-.39-.04-.12-.04-.25-.08-.37-.11h-.02a2 2 0 0 1-1.22-1.82v-.09c.02-.88.6-1.61 1.4-1.86.06-.02.13-.03.19-.05l.51-.12c.68-.14 1.37-.26 2.07-.35 1.11-.15 2.24-.22 3.4-.22 1.55 0 3.08.14 4.57.4 2.78.5 5.41 1.45 7.81 2.77.21 2.11.84 4.1 1.8 5.88 0 .01.01.02.02.04l.07.12c.07.12.16.23.26.34z"/><path fill="#47b800" d="M26.64 18.66c.4-.06.81-.11 1.22-.14.76-.07 1.54-.11 2.31-.11 1.76 0 3.48.18 5.14.52 3.22 2.32 5.89 5.35 7.76 8.87.1.18.19.35.28.53.14.28.23.6.23.94 0 1.11-.89 2.01-2 2.01-.27 0-.52-.06-.76-.16-.12-.05-.24-.11-.36-.19-.21-.14-.4-.32-.54-.53-.04-.06-.07-.11-.1-.17a25.6 25.6 0 0 0-4.89-5.97 25.5 25.5 0 0 0-6.88-4.48c-.73-.32-1.48-.62-2.25-.87-.07-.03-.15-.06-.22-.08-.08-.03-.15-.05-.23-.07.13.02.26.04.39.04h.03c.2 0 .4-.04.58-.09.1-.02.19-.03.28-.04z"/><path fill="#ffa600" d="M17.66 26.1c2.31-1.13 5.04-1.96 7.65-2.32 1.16-.17 2.35-.25 3.56-.25.15 0 .3 0 .44.01 1.94.03 3.82.28 5.63.72 1.91 1.73 3.56 3.74 4.88 5.97.04.06.07.11.1.17.14.21.33.4.54.54-.11-.06-5-2.12-7.57-2.55a24 24 0 0 0-3.08-.34c-.75-.33-1.52-.62-2.3-.87a25.8 25.8 0 0 0-7.95-1.25c-.37 0-.75.01-1.12.02-.07 0-.14.01-.21.01h-.05c-.19.02-.37.07-.54.14z"/><path fill="#ffba00" d="M41.24 37.76a2.008 2.008 0 0 1-1.83 2.82h-.1a1.9 1.9 0 0 1-1.22-.5c-.17-.15-.32-.34-.43-.55-1.04-1.3-2.2-2.49-3.48-3.56a25.65 25.65 0 0 0-15.37-6.02h-.05c-.26-.01-.52-.02-.77-.02-.89-.2-1.56-1-1.56-1.96 0-.83.5-1.54 1.22-1.85 0-.01.01-.02.02-.02.17-.07.35-.11.54-.13h.05c.07 0 .14-.01.21-.01.37-.02.75-.02 1.12-.02 2.77 0 5.45.44 7.95 1.25a25.8 25.8 0 0 1 9.29 5.37c1.41 1.26 2.67 2.69 3.77 4.24.1.13.19.26.28.4.16.17.29.36.38.56z"/><path fill="#ff3f2f" d="M37.65 39.52c.1.21.25.4.43.55.22.19.48.34.77.43-.17-.03-.33-.05-.51-.08-1.18-.17-2.37-.25-3.59-.25-3.05 0-5.98.53-8.69 1.5-.94-.76-1.94-1.46-3-2.08-.05-.04-.11-.07-.16-.1-.29-.16-.61-.25-.95-.25-.23 0-.45.04-.64.11.22-.13.45-.25.67-.37 3.62-1.93 7.73-3.02 12.1-3.02h.08c1.27 1.07 2.44 2.27 3.48 3.56z"/><path fill="#ff5b1a" d="M31.09 47.09c.06.11.09.24.09.37 0 .47-.38.85-.85.85-.2 0-.39-.07-.54-.19a25.8 25.8 0 0 0-8.38-4.93c-.08-.03-.17-.06-.25-.09-.71-.31-1.2-.1-1.2-1.83 0-.59.25-1.12.65-1.48.24-.15.47-.29.71-.42.2-.07.41-.11.64-.11a2 2 0 0 1 1.12.35c1.05.62 2.05 1.32 3 2.08 1.86 1.5 3.5 3.25 4.88 5.2l.15.21z"/><path fill="#006eae" d="M57.23.2a.88.88 0 0 0-.54-.2h-.04c-4.68.96-7.28 3.36-7.89 3.92-1.63 1.5-2.95 3.34-3.85 5.4h.02c-.87 1.93-1.36 4.07-1.36 6.32 0 1.35.18 2.65.51 3.89q.09.375.21.75c.03.09.06.18.09.26.29.91.66 1.79 1.11 2.62 0 .01.01.03.02.04l.07.12c.07.13.16.24.25.34l.03.03c.36.37.87.61 1.43.61 1.1 0 2-.9 2-2.01 0-.19-.03-.37-.08-.54-.08-.17-.17-.38-.25-.55-.02-.05-.04-.09-.06-.13-.71-1.68-1.14-3.51-1.22-5.43h.01q-.03-.39-.03-.78c0-1.45.2-2.85.58-4.18 0 0 1.19-3.63 2.43-5.15 1.69-2.39 4.55-3.48 5.92-3.8.16-.04.53-.15.53-.15.23-.09.41-.42.41-.72 0-.27-.12-.5-.31-.66z"/><path fill="#005e9e" d="M.49 19.34c1-.26 2.42.61 3.22.76.13.03.25.05.38.07.54.1 1.09.18 1.64.26.1 0 .31-.01.52-.13.17-.1.28-.22.33-.29.02-.02.04-.03.05-.05l.01-.01c.12-.14.22-.31.3-.49.08-.2-.06-.42-.27-.42a43 43 0 0 1-5.75-.43c-.2.24-.35.48-.42.71 0 .01-.01.02-.01.03z"/><path fill="#008ed1" d="M58.94 19.67c-.23-.24-.46-.47-.7-.7l-.03-.03a38 38 0 0 0-2.86-2.53c.49.4.98.81 1.45 1.22-2.36-2.1-4.96-3.94-7.75-5.47v-.01s0-.01.01-.01c-.17-.09-.34-.18-.52-.27a8 8 0 0 0-.52-.26c-.03-.02-.06-.03-.1-.05a41.4 41.4 0 0 0-8.2-3.15l-.21-.06s-.01 0-.01-.01c-.06-.02-.13-.03-.2-.05l-.28-.06c-1.32-.33-2.66-.6-4.02-.8h-.02a42 42 0 0 0-6.16-.44c-.65 0-1.3.01-1.95.04-8.94.41-17.16 3.62-23.8 8.77-.39.28-1.09.86-1.69 1.38-.02.02-.04.04-.07.06-.06.06-.12.12-.18.17l-.87.78a.7.7 0 0 0-.17.24c0 .01 0 .02-.01.03h.01c0 .01-.01.01-.01.02-.01.03-.01.06-.02.1s-.01.09-.01.14v.02-.01c0 .02.01.04.01.05 0-.01 0-.03-.01-.05 0 .05.01.1.02.13 0-.02 0-.04-.01-.05.01.01.01.02.02.03s.01.02.01.02l.01.01c.01.01.02.03.03.03l.03.06c.02.04.04.08.07.12l.01.01c.01.02.03.04.05.06l.01-.01-.04-.04c.01.01.03.02.04.03.02.02.04.04.06.05s.03.02.04.02c-.01-.01-.02-.01-.04-.02q.105.105.27.15v-.01c.07-.23.22-.48.42-.73l.03-.03a41.82 41.82 0 0 1 25.32-8.49c3.64 0 7.17.47 10.54 1.34.22.05.43.11.65.17 1.19.33 2.37.71 3.51 1.14a43 43 0 0 1 4.18 1.86s.01 0 .01.01c.4.2.79.41 1.18.63.77.43 1.53.88 2.27 1.36l.2.13c.19.12.39.24.58.37 0 0 0 .01.01.01s.02.01.02.02c.43.29.85.58 1.27.87.04.03.07.06.11.09.37.27.73.54 1.09.81.06.05.12.09.18.14.36.28.71.57 1.06.86.1.09.2.17.3.26.26.21.5.43.74.65.09.08.19.16.28.24.16.15.8.73.94.87.25.24.49.48.73.72.09.05.19.09.29.13.22.09.46.14.71.14.68 0 1.27-.34 1.63-.85.23-.64.41-1.3.56-1.98v-.08c-.06-.06-.11-.12-.17-.18z"/></g></g></svg>