<svg xmlns="http://www.w3.org/2000/svg" width="167" height="60" viewBox="0 0 167 60"><title>Logo</title><g id="Symbols" fill="none" fill-rule="evenodd" stroke="none" stroke-width="1"><g id="Footer" fill-rule="nonzero" transform="translate(-135 -60)"><g id="Logo" transform="translate(135 60)"><g id="Group" fill="#fff" transform="translate(126.19 50.952)"><path id="Shape" d="m2.205.341.308.35L.54 2.451l2.014 1.776-.349.352-2.17-1.92v-.404zm6.813.092.33.289-.495.577c.36.39.627.908.627 1.73 0 .888-.524 1.783-1.367 2.163.895.325 1.387.951 1.387 1.827 0 1.372-1.068 2.029-2.413 2.029-1.348 0-2.407-.742-2.407-2.029h.504c0 1.04.885 1.536 1.903 1.536 1.016 0 1.92-.455 1.92-1.536 0-1.094-.977-1.525-1.92-1.525C5.616 5.494 4.7 4.392 4.7 3.03 4.7 1.442 5.77.547 7.087.547c.513 0 1.047.185 1.438.461zM5.204 3.03c0 1.051.72 1.958 1.884 1.958 1.047 0 1.9-.907 1.9-1.958 0-1.289-.853-1.981-1.9-1.981-1.041 0-1.884.652-1.884 1.98M12.019.638l.02.908c.318-.691 1.04-.96 1.685-.96.38-.006.751.095 1.09.3l-.226.413a1.63 1.63 0 0 0-.864-.236 1.69 1.69 0 0 0-1.675 1.7v2.966h-.504V.637zm4.347 2.556c0-1.617 1.15-2.647 2.58-2.647 1.429 0 2.58 1.03 2.58 2.647 0 1.618-1.151 2.61-2.58 2.61s-2.58-.992-2.58-2.61m4.666 0c0-1.318-.935-2.172-2.087-2.172-1.15 0-2.087.854-2.087 2.172 0 1.322.937 2.114 2.087 2.114 1.152 0 2.087-.792 2.087-2.114m6.773 2.536v-.918c-.39.705-1.1.991-1.81 1-1.355 0-2.29-.834-2.29-2.247V.627h.501v2.93c0 1.155.71 1.77 1.81 1.762 1.048-.012 1.778-.804 1.778-1.856V.627h.504V5.73zm2.844 2.123V.638h.495v1.207c.4-.773 1.212-1.278 2.2-1.278 1.377.052 2.467.98 2.467 2.616 0 1.714-1.152 2.64-2.58 2.64-.864 0-1.665-.422-2.096-1.268v3.298zm4.659-4.67c0-1.43-.926-2.133-2.077-2.133-1.181 0-2.056.9-2.056 2.145 0 1.249.894 2.145 2.056 2.145 1.15 0 2.077-.721 2.077-2.157m5.168-.928v.405l-2.17 1.919-.347-.352 2.013-1.775-1.974-1.76.31-.351z"/></g><g id="Group"><path id="Shape" fill="#005e9e" d="M50.652 5.54c2.806 2.753 4.6 6.719 4.76 10.928.468.382.93.769 1.382 1.17a41 41 0 0 1 1.408 1.306l.03.027q.356.346.705.703l.172.177c.206-1.026.32-2.088.32-3.178A15.89 15.89 0 0 0 52.427 3.48q-.044-.03-.096-.06a16 16 0 0 0-1.685-.981c-.673.451-1.309.954-1.909 1.498q.694.496 1.333 1.06.295.264.582.542"/><path id="Shape" fill="#00a84d" d="M45.842 23.681a26.2 26.2 0 0 0-10.517-4.746 25.9 25.9 0 0 0-8.965-.232 2 2 0 0 1-.575.094h-.029a2 2 0 0 1-.388-.04 9 9 0 0 0-.368-.111c-.008-.006-.019-.006-.025-.01a1.99 1.99 0 0 1-1.217-1.816v-.087a2 2 0 0 1 1.594-1.91c.165-.042.343-.08.511-.117a25.7 25.7 0 0 1 5.459-.58c1.557 0 3.09.137 4.572.403a25.6 25.6 0 0 1 7.806 2.767 15.8 15.8 0 0 0 1.797 5.886c.003.01.013.021.02.038.029.05.067.122.072.125q.11.182.253.336"/><path id="Shape" fill="#47b800" d="M26.643 18.663q.601-.086 1.224-.138a25.9 25.9 0 0 1 7.457.41 25.9 25.9 0 0 1 7.757 8.875q.145.262.275.524c.146.282.23.602.23.94a2.006 2.006 0 0 1-2.003 2.009 1.9 1.9 0 0 1-.757-.156 1.9 1.9 0 0 1-.9-.73c-.036-.059-.066-.111-.102-.166a25.7 25.7 0 0 0-4.884-5.976 25.6 25.6 0 0 0-6.881-4.481 24 24 0 0 0-2.242-.87 3 3 0 0 0-.23-.076q-.107-.037-.219-.071.19.04.388.04h.03a2 2 0 0 0 .574-.094c.097-.016.186-.027.283-.04"/><path id="Shape" fill="#ffa600" d="M17.658 26.105a26.1 26.1 0 0 1 7.652-2.325 26 26 0 0 1 3.564-.247q.22-.002.438.007c1.938.03 3.822.276 5.628.716a25.7 25.7 0 0 1 4.884 5.975c.036.055.066.108.103.166.139.213.322.396.539.542-.11-.061-5.004-2.115-7.566-2.548a25 25 0 0 0-3.084-.336 25.7 25.7 0 0 0-10.248-2.12c-.371 0-.75.008-1.121.023l-.205.01-.048.002a2 2 0 0 0-.536.135"/><path id="Shape" fill="#ffba00" d="M41.24 37.758a2.006 2.006 0 0 1-1.829 2.819q-.046.001-.093-.004h-.01a1.7 1.7 0 0 1-.45-.076 1.94 1.94 0 0 1-.774-.423 1.9 1.9 0 0 1-.432-.548q-.009-.001-.007-.002a25.4 25.4 0 0 0-3.479-3.562 25.63 25.63 0 0 0-15.372-6.017l-.047-.002a17 17 0 0 0-.775-.022 2.009 2.009 0 0 1-.34-3.806c.008 0 .017-.008.026-.01q.253-.104.536-.136l.049-.002.204-.01a25.8 25.8 0 0 1 9.071 1.228 25.7 25.7 0 0 1 9.288 5.37 25.7 25.7 0 0 1 3.774 4.236q.147.196.281.4c.158.167.288.359.379.567"/><path id="Shape" fill="#ff3f2f" d="M37.645 39.52s0 .006.007.006c.108.209.258.397.433.548.222.195.482.345.773.423-.168-.027-.335-.05-.51-.075a25.5 25.5 0 0 0-3.593-.25 25.8 25.8 0 0 0-8.69 1.503 25 25 0 0 0-2.992-2.085q-.08-.051-.161-.098a2 2 0 0 0-1.597-.137q.336-.196.677-.373a25.6 25.6 0 0 1 12.096-3.02h.079a25.6 25.6 0 0 1 3.478 3.558"/><path id="Shape" fill="#ff5b1a" d="M31.094 47.086a.9.9 0 0 1 .085.37c0 .474-.378.85-.85.85a.87.87 0 0 1-.543-.193 25.7 25.7 0 0 0-8.633-5.017 2 2 0 0 1-1.2-1.838c0-.588.25-1.121.653-1.484.235-.144.468-.286.708-.42q.297-.105.643-.106c.342 0 .665.088.954.244q.081.047.16.098a25 25 0 0 1 2.994 2.085 25.8 25.8 0 0 1 4.884 5.197z"/><path id="Shape" fill="#006eae" d="M57.227.196a.86.86 0 0 0-.54-.196h-.036c-4.686.956-7.283 3.358-7.89 3.92a16 16 0 0 0-3.849 5.402c.006 0 .01.005.014.005a15.27 15.27 0 0 0-.851 10.205q.093.379.206.75l.088.26c.289.911.665 1.79 1.11 2.623 0 .01.01.024.02.04.03.046.068.121.073.121q.112.185.249.339l.031.029c.36.367.869.603 1.432.603a2.01 2.01 0 0 0 2.004-2.005c0-.185-.03-.363-.078-.533-.082-.174-.171-.383-.25-.555a.6.6 0 0 0-.058-.133 15.6 15.6 0 0 1-1.222-5.426h.01q-.022-.389-.021-.784c0-1.45.2-2.852.577-4.18 0 0 1.194-3.632 2.428-5.152 1.688-2.386 4.55-3.482 5.92-3.802.159-.035.534-.147.534-.147.225-.093.408-.418.408-.725a.86.86 0 0 0-.309-.659"/><path id="Shape" fill="#005e9e" d="M.491 19.335c.998.258 2.416.61 3.214.757.128.028.254.048.38.072a47 47 0 0 0 1.644.258c.097 0 .303-.01.518-.133a1.1 1.1 0 0 0 .333-.29q.027-.025.049-.049l.01-.006q.184-.222.308-.494a.3.3 0 0 0-.274-.42A41.5 41.5 0 0 1 .92 18.6c-.199.246-.346.485-.422.711 0 .007-.012.012-.006.024"/><path id="Shape" fill="#008ed1" d="M58.937 19.674a30 30 0 0 0-.706-.703l-.03-.027a42 42 0 0 0-1.408-1.307 42.5 42.5 0 0 0-7.755-5.467l.003-.002q0-.006.007-.011l-.516-.27q-.256-.13-.52-.26a1 1 0 0 0-.095-.046 42 42 0 0 0-8.204-3.15l-.21-.06q-.01-.001-.017-.004c-.064-.017-.131-.03-.198-.05l-.276-.066a41 41 0 0 0-4.022-.803l-.041-.006a41.4 41.4 0 0 0-6.167-.45q-.98-.001-1.95.044a41.84 41.84 0 0 0-23.8 8.769h-.004c-.389.281-1.088.863-1.684 1.38l-.068.061q-.098.085-.192.17-.441.384-.87.78a.7.7 0 0 0-.17.245q-.002.015-.009.028.005 0 .01.003l-.016.014c-.01.032-.015.066-.024.1q-.006.07-.005.14l.001.02v-.008c.003.018.009.034.01.051q-.003-.021-.01-.044a.6.6 0 0 0 .023.132l-.008-.05.004.027.004.024.002.004c.002.013.008.027.01.035q.009.026.024.06h.002q.028.063.071.123l.002.001q.02.032.047.06l.002-.003-.037-.04q.02.02.043.037l.058.054c-.013-.01-.028-.016-.042-.026a.7.7 0 0 0 .267.155q.004-.003.004-.007c.07-.232.223-.478.426-.73l.029-.031a41.84 41.84 0 0 1 25.318-8.485c3.639 0 7.17.467 10.536 1.337q.323.082.645.17c1.19.33 2.366.708 3.51 1.138a41 41 0 0 1 4.179 1.862l.015.007a43 43 0 0 1 3.449 1.991c.194.124.393.244.583.37l.014.01.024.014q.64.43 1.266.875c.038.025.07.054.108.08q.552.4 1.087.814c.06.047.12.09.18.138q.539.421 1.064.862.153.131.305.258c.255.213.497.432.744.65.092.08.188.159.28.243.157.144.8.732.943.868q.371.359.73.72.136.08.281.131c.222.09.465.14.717.14.676 0 1.269-.335 1.634-.843.228-.644.41-1.308.556-1.987.008-.026.01-.05.015-.074z"/></g><g id="Group" fill="#fff" transform="translate(46.667 28.095)"><path id="Shape" d="M86.378 11.168c.195 2.046 1.099 3.564 2.777 4.579 2.457 1.487 5.425 1.088 7.715-.94.38-.337.894-.6 1.388-.713.614-.142 1.172.147 1.512.708.349.572.341 1.177-.009 1.741-.553.896-1.387 1.497-2.271 2.023-3.648 2.163-9.427 1.714-12.514-1.669-1.859-2.04-2.612-4.48-2.526-7.192.113-3.475 1.478-6.309 4.475-8.205C90.25-.602 95.06-.359 97.95 2.042c1.634 1.357 2.511 3.158 2.909 5.213.108.561.194 1.139.207 1.708.034 1.58-.591 2.203-2.156 2.205q-5.9.002-11.802 0zm10.837-2.96c-.14-1.78-.683-3.294-2.22-4.262-2.191-1.386-5.404-.883-7.184 1.092a5.5 5.5 0 0 0-1.413 3.17zM65.945 3.4c.963-1.372 2.193-2.329 3.74-2.84 3.432-1.134 7.964-.088 9.117 4.796.212.894.31 1.832.321 2.754.038 3.13.016 6.267.012 9.4 0 .27-.012.547-.053.814-.15.996-.876 1.618-1.876 1.627-.992.013-1.757-.607-1.923-1.578-.051-.287-.051-.583-.051-.873-.004-2.806.021-5.61-.017-8.417a13 13 0 0 0-.318-2.64c-.642-2.838-3.199-3.356-5.091-2.79-2.113.625-3.09 2.233-3.502 4.264-.132.655-.163 1.336-.17 2.005-.017 2.46-.004 4.92-.006 7.378q0 .411-.032.821c-.094 1.153-.844 1.852-1.956 1.828-1.095-.02-1.878-.77-1.89-1.915-.026-3.096-.014-6.193-.018-9.291 0-2.167-.015-4.333.015-6.503.015-1.273.912-2.024 2.146-1.87.9.11 1.497.829 1.55 1.885.019.38.002.764.002 1.145m-20.099.1C46.817 1.936 48.133.95 49.79.491c3.448-.956 7.542.139 8.729 4.632.256.967.367 1.996.384 3.002.046 3.1.017 6.204.016 9.306 0 .181-.003.362-.02.54-.116 1.236-.88 1.97-1.989 1.914-1.15-.059-1.863-.802-1.871-2.034-.019-2.847.013-5.695-.023-8.543a15 15 0 0 0-.283-2.744c-.763-3.789-5.07-3.707-6.918-1.907-1.151 1.121-1.735 2.518-1.784 4.08-.084 2.774-.052 5.548-.072 8.323-.002.347-.008.69-.032 1.033-.082 1.101-.857 1.821-1.922 1.794-1.087-.027-1.832-.743-1.9-1.835a9 9 0 0 1-.016-.597q-.005-7.346.004-14.693c0-.375.013-.77.116-1.126.24-.833.954-1.32 1.79-1.295.838.026 1.518.56 1.69 1.42.104.526.101 1.074.157 1.739M9.338 15.266l1.786-4.495c1.204-3.035 2.4-6.077 3.616-9.105C15.207.499 16.009.005 17.017.183c1.341.237 1.923 1.504 1.332 2.91q-1.1 2.612-2.206 5.224c-1.376 3.243-2.74 6.488-4.135 9.721-.514 1.193-1.408 1.919-2.764 1.902-1.362-.017-2.22-.794-2.723-1.975C4.557 13.357 2.618 8.739.674 4.123.46 3.617.247 3.107.09 2.58-.166 1.717.25.81 1.041.391 1.855-.04 2.897.117 3.44.82c.287.37.506.81.679 1.25 1.704 4.298 3.392 8.6 5.085 12.903.027.067.061.133.134.292m14.74-4.097c.194 2.046 1.1 3.564 2.775 4.579 2.46 1.487 5.426 1.088 7.716-.94a3.3 3.3 0 0 1 1.39-.713c.614-.142 1.17.147 1.512.708.348.572.34 1.177-.01 1.741-.552.896-1.384 1.497-2.271 2.023-3.648 2.163-9.426 1.714-12.513-1.669-1.858-2.04-2.613-4.48-2.524-7.192.112-3.475 1.477-6.309 4.475-8.205 3.323-2.102 8.133-1.859 11.024.542 1.633 1.357 2.51 3.158 2.908 5.213.109.561.195 1.139.208 1.708.033 1.58-.592 2.203-2.156 2.205q-5.9.002-11.804 0zm10.837-2.96c-.139-1.78-.682-3.294-2.217-4.262-2.192-1.386-5.407-.883-7.187 1.092a5.5 5.5 0 0 0-1.412 3.17zm78.658 1.629 5.784-6.91c.516-.618.567-1.532.067-2.161a1.684 1.684 0 0 0-2.622-.046l-5.35 6.392a.342.342 0 0 1-.53 0l-5.29-6.32c-.587-.7-1.636-.889-2.366-.337a1.69 1.69 0 0 0-.277 2.437l5.811 6.945a.34.34 0 0 1 0 .443l-5.75 6.872c-.586.702-.59 1.773.079 2.393a1.68 1.68 0 0 0 2.442-.147l5.352-6.394a.344.344 0 0 1 .529 0l5.289 6.32c.587.704 1.636.888 2.365.34a1.696 1.696 0 0 0 .28-2.44l-5.812-6.945a.344.344 0 0 1 0-.442"/></g></g></g></g></svg>